<!DOCTYPE svg PUBLIC "-//W3C//DTD SVG 20010904//EN" "http://www.w3.org/TR/2001/REC-SVG-20010904/DTD/svg10.dtd">
<svg version="1.0" xmlns="http://www.w3.org/2000/svg" width="348px" height="391px" viewBox="0 0 3480 3910" preserveAspectRatio="xMidYMid meet">
<g id="layer101" fill="#a45f00" stroke="none">
<path d="M0 1955 l0 -1955 1740 0 1740 0 0 1955 0 1955 -1740 0 -1740 0 0 -1955z"/>
</g>
<g id="layer102" fill="#d78100" stroke="none">
<path d="M0 1955 l0 -1955 1740 0 1740 0 0 1955 0 1955 -1740 0 -1740 0 0 -1955z m2125 1663 c-7 -29 -34 -134 -60 -233 -48 -183 -64 -270 -90 -495 -8 -69 -22 -150 -31 -180 -9 -30 -24 -102 -35 -160 -10 -58 -28 -152 -39 -210 -31 -164 -45 -524 -42 -1059 2 -373 0 -476 -10 -483 -7 -4 -36 -8 -64 -8 l-51 0 -6 78 c-9 125 5 925 19 1080 7 78 6 82 -13 82 -16 0 -27 -17 -53 -82 -51 -131 -103 -250 -122 -283 -9 -16 -35 -64 -56 -105 -22 -41 -58 -111 -81 -155 -30 -57 -61 -98 -109 -142 -36 -35 -70 -63 -76 -63 -5 0 -24 -16 -43 -35 -18 -19 -51 -39 -73 -45 -21 -6 -42 -15 -45 -20 -3 -6 -15 -10 -26 -10 -17 0 -19 7 -19 71 l0 70 40 17 c22 9 40 21 40 26 0 11 88 115 118 140 25 20 81 91 150 190 53 76 140 247 176 346 15 41 36 93 47 116 10 23 19 48 19 55 0 8 8 26 18 39 9 14 22 48 28 75 6 28 27 105 47 172 21 67 37 139 37 160 0 21 8 67 18 103 11 36 25 103 31 150 7 47 23 133 37 191 13 58 24 121 24 140 0 19 7 66 15 104 8 39 17 106 21 150 3 44 10 94 15 112 7 21 7 45 -1 72 -9 34 -8 43 7 61 16 18 29 20 134 20 l117 0 -13 -52z m-470 -69 c0 -52 -6 -119 -12 -149 -7 -30 -19 -119 -28 -198 -16 -143 -39 -267 -70 -378 -9 -32 -20 -77 -24 -99 -5 -22 -17 -67 -29 -100 -11 -33 -24 -76 -27 -95 -12 -58 -56 -184 -71 -201 -8 -8 -14 -19 -14 -23 0 -4 -16 -44 -36 -89 -52 -117 -70 -162 -79 -195 -7 -24 -61 -93 -125 -157 -22 -22 -55 -62 -73 -90 -17 -27 -40 -51 -50 -53 -15 -3 -17 8 -17 117 l0 121 25 -4 c21 -4 32 4 64 47 21 29 49 75 61 102 13 28 35 66 50 85 49 62 107 219 155 416 25 104 59 232 76 284 16 52 43 181 59 285 16 105 37 226 46 271 9 45 14 103 12 129 l-3 49 45 12 c25 6 50 11 55 10 6 -2 10 -42 10 -97z m896 91 c27 -15 24 -29 -23 -106 -23 -38 -59 -107 -81 -154 -21 -47 -52 -112 -67 -146 -16 -33 -38 -105 -50 -160 -11 -54 -26 -119 -34 -144 -27 -89 -36 -126 -47 -200 -6 -41 -19 -113 -29 -160 -22 -105 -40 -301 -40 -440 0 -58 -7 -143 -16 -190 -12 -70 -15 -165 -13 -540 1 -250 1 -488 0 -528 l-1 -73 -57 3 c-56 3 -58 4 -61 33 -6 70 1 943 9 1075 11 178 27 359 33 369 3 4 14 65 25 137 11 71 25 156 30 189 6 33 13 83 16 110 21 174 124 551 183 670 31 62 72 157 72 165 0 5 9 29 20 54 19 45 20 46 65 46 26 0 55 -5 66 -10z m-1251 -123 c0 -23 -5 -58 -10 -77 -6 -19 -21 -110 -34 -201 -19 -128 -33 -187 -61 -260 -20 -52 -56 -144 -79 -205 -50 -131 -76 -178 -100 -182 -16 -3 -17 6 -15 95 1 91 3 98 23 103 44 12 121 258 156 501 12 79 28 157 36 173 20 41 19 67 -3 59 -10 -3 -15 -3 -11 1 6 8 76 35 91 36 4 0 7 -19 7 -43z m1678 13 c9 -5 29 -14 44 -20 35 -12 29 -32 -27 -85 -44 -41 -134 -165 -203 -279 -9 -16 -28 -41 -40 -57 -25 -31 -72 -149 -72 -181 0 -25 -30 -117 -46 -143 -33 -53 -108 -444 -119 -620 -3 -55 -12 -145 -20 -200 -29 -208 -37 -445 -25 -735 6 -151 8 -306 5 -343 l-7 -68 -61 3 -60 3 2 465 2 465 44 355 c72 571 138 847 262 1095 43 85 153 235 217 293 25 23 46 47 46 52 0 13 35 13 58 0z m210 -522 c-2 -77 -6 -93 -19 -96 -9 -2 -35 -21 -58 -42 -34 -32 -54 -70 -112 -207 -39 -92 -77 -190 -84 -218 -30 -115 -54 -223 -60 -270 -3 -27 -15 -90 -25 -140 -39 -185 -45 -264 -45 -575 0 -168 4 -395 9 -504 l9 -199 -24 6 c-13 4 -37 7 -53 7 -25 0 -27 3 -22 24 3 13 -1 89 -10 168 -13 115 -15 207 -11 468 3 179 11 343 17 365 6 22 15 108 20 190 15 218 107 598 183 753 20 40 41 89 48 109 7 23 39 62 86 107 41 39 84 88 94 109 13 24 26 37 40 37 19 0 20 -5 17 -92z m1 -860 c-1 -145 -2 -153 -22 -163 -12 -6 -28 -28 -36 -50 -18 -54 -33 -289 -26 -398 4 -48 1 -145 -6 -215 -11 -111 -10 -140 4 -227 28 -170 45 -486 27 -485 -13 1 -82 60 -70 60 10 0 12 17 7 80 -4 45 -11 97 -16 118 -10 38 -23 106 -39 199 -24 142 -10 522 28 748 5 33 10 84 10 113 0 54 31 165 78 282 53 133 63 123 61 -62z m-1785 -1201 c8 -12 18 -59 22 -105 4 -48 11 -82 18 -83 9 0 -115 -46 -164 -60 -32 -9 -20 195 15 247 22 33 88 34 109 1z"/>
</g>
<g id="layer103" fill="#007bff" stroke="none">
<path d="M0 1955 l0 -1955 1740 0 1740 0 0 1955 0 1955 -1740 0 -1740 0 0 -1955z m2475 1695 c39 -5 106 -14 150 -20 118 -15 184 -30 235 -53 25 -11 54 -23 65 -27 11 -5 36 -15 55 -23 19 -8 45 -18 57 -21 31 -10 91 -60 124 -103 l28 -38 0 -1425 c0 -1414 0 -1425 -19 -1388 -32 59 -83 92 -238 153 -145 57 -150 58 -332 77 -158 17 -236 19 -535 15 -310 -5 -368 -8 -505 -30 -85 -14 -182 -34 -215 -46 -33 -12 -82 -28 -110 -37 -27 -9 -60 -21 -71 -27 -55 -30 -133 -87 -148 -108 -15 -22 -16 1 -16 318 l0 342 -34 -20 c-38 -22 -300 -113 -358 -124 -24 -5 -45 -2 -67 9 -17 9 -33 15 -36 14 -2 -2 -14 5 -25 15 -11 9 -25 17 -30 17 -6 0 -16 11 -22 25 -16 35 7 151 36 183 23 26 89 62 148 81 50 17 308 158 330 181 10 10 26 21 38 25 20 6 20 10 20 877 l0 871 25 33 c33 43 180 139 236 154 24 7 49 16 54 20 13 11 106 36 180 50 33 6 92 17 130 26 39 8 97 16 130 18 104 6 647 -5 720 -14z"/>
</g>
<g id="layer104" fill="#51a4ff" stroke="none">
<path d="M0 1955 l0 -1955 1740 0 1740 0 0 1955 0 1955 -1740 0 -1740 0 0 -1955z m2475 1695 c39 -5 106 -14 150 -20 118 -15 184 -30 235 -53 25 -11 54 -23 65 -27 11 -5 36 -15 55 -23 19 -8 45 -18 57 -21 31 -10 91 -60 124 -103 l28 -38 0 -1425 c0 -1414 0 -1425 -19 -1388 -32 59 -83 92 -238 153 -145 57 -150 58 -332 77 -158 17 -236 19 -535 15 -310 -5 -368 -8 -505 -30 -85 -14 -182 -34 -215 -46 -33 -12 -82 -28 -110 -37 -27 -9 -60 -21 -71 -27 -55 -30 -133 -87 -148 -108 -15 -22 -16 1 -16 318 l0 342 -34 -20 c-43 -25 -311 -117 -368 -125 -79 -12 -90 -26 -63 -78 9 -17 15 -55 15 -95 0 -81 -16 -108 -91 -158 -90 -59 -134 -74 -246 -80 l-103 -6 0 109 c0 121 11 156 72 238 51 68 100 96 170 96 32 0 75 -7 95 -15 46 -20 67 -5 35 25 -11 11 -26 20 -32 20 -6 0 -16 11 -22 25 -16 35 7 151 36 183 23 26 89 62 148 81 50 17 308 158 330 181 10 10 26 21 38 25 20 6 20 10 20 877 l0 871 25 33 c33 43 180 139 236 154 24 7 49 16 54 20 13 11 106 36 180 50 33 6 92 17 130 26 39 8 97 16 130 18 104 6 647 -5 720 -14z"/>
<path d="M267 1028 c-17 -16 -34 -28 -37 -28 -13 0 -57 -74 -78 -133 -15 -39 -22 -81 -22 -127 l0 -70 33 0 c107 0 259 50 272 89 3 11 14 21 25 24 33 9 60 66 60 130 0 31 -4 57 -10 57 -5 0 -10 7 -10 15 0 8 -6 15 -14 15 -21 0 -28 -31 -11 -50 16 -18 21 -70 6 -70 -5 0 -12 14 -16 31 -8 36 -31 48 -52 26 -15 -14 -15 -18 0 -41 18 -26 23 -96 8 -96 -5 0 -11 17 -15 39 -9 59 -26 67 -65 27 l-32 -33 21 -26 c12 -15 20 -37 18 -49 -3 -20 -6 -19 -22 14 -19 39 -25 40 -63 5 -22 -19 -22 -22 -6 -39 9 -10 13 -21 9 -26 -4 -4 -13 1 -20 10 -12 16 -15 16 -35 2 -28 -20 -40 -10 -18 14 22 24 21 32 -3 32 -11 0 -20 4 -20 8 0 17 13 20 38 11 23 -9 30 -7 45 12 21 26 10 45 -34 54 -16 4 -29 11 -29 16 0 11 2 11 55 -2 39 -10 47 -9 74 11 17 12 31 25 31 29 0 10 -46 29 -80 33 -14 2 -23 8 -20 13 8 15 82 6 103 -13 18 -16 20 -15 39 8 l20 24 -29 9 c-57 17 -57 17 -46 28 7 7 24 5 54 -5 31 -11 45 -12 50 -4 35 56 -115 78 -174 26z"/>
</g>
<g id="layer105" fill="#f1eda0" stroke="none">
<path d="M0 1955 l0 -1955 1740 0 1740 0 0 1955 0 1955 -1740 0 -1740 0 0 -1955z m2475 1695 c39 -5 106 -14 150 -20 118 -15 184 -30 235 -53 25 -11 54 -23 65 -27 11 -5 36 -15 55 -23 19 -8 45 -18 57 -21 31 -10 91 -60 124 -103 l28 -38 0 -1425 c0 -1414 0 -1425 -19 -1388 -32 59 -83 92 -238 153 -145 57 -150 58 -332 77 -158 17 -236 19 -535 15 -310 -5 -368 -8 -505 -30 -85 -14 -182 -34 -215 -46 -33 -12 -82 -28 -110 -37 -27 -9 -60 -21 -71 -27 -55 -30 -133 -87 -148 -108 -15 -22 -16 1 -16 318 l0 342 -34 -20 c-43 -25 -311 -117 -368 -125 -79 -12 -90 -26 -63 -78 22 -41 20 -154 -3 -188 -25 -39 -74 -73 -161 -114 -43 -20 -76 -27 -158 -31 l-103 -6 0 109 c0 121 11 156 72 238 51 68 100 96 170 96 32 0 75 -7 95 -15 46 -20 67 -5 35 25 -11 11 -26 20 -32 20 -6 0 -16 11 -22 25 -16 35 7 151 36 183 23 26 89 62 148 81 50 17 308 158 330 181 10 10 26 21 38 25 20 6 20 10 20 877 l0 871 25 33 c33 43 180 139 236 154 24 7 49 16 54 20 13 11 106 36 180 50 33 6 92 17 130 26 39 8 97 16 130 18 104 6 647 -5 720 -14z"/>
</g>
<g id="layer106" fill="#f8f1cb" stroke="none">
<path d="M1790 658 c-228 -19 -277 -31 -410 -96 -32 -15 -35 -21 -38 -64 -3 -42 0 -48 31 -72 48 -37 162 -74 297 -97 170 -28 666 -28 889 2 86 11 172 24 192 30 46 11 85 42 105 81 36 70 -15 116 -184 165 -166 49 -321 65 -582 61 -118 -2 -253 -6 -300 -10z"/>
</g>
<g id="layer107" fill="#ffffff" stroke="none">
<path d="M0 1955 l0 -1955 1740 0 1740 0 0 1955 0 1955 -1740 0 -1740 0 0 -1955z m2475 1695 c39 -5 106 -14 150 -20 118 -15 184 -30 235 -53 25 -11 54 -23 65 -27 11 -5 36 -15 55 -23 19 -8 45 -18 57 -21 31 -10 91 -60 124 -103 l28 -38 1 -1463 c0 -1268 -2 -1467 -15 -1491 -42 -83 -279 -185 -535 -232 -112 -21 -159 -23 -460 -25 -385 -2 -397 -1 -733 60 -221 40 -386 125 -432 222 -13 27 -15 90 -15 403 l0 370 -34 -20 c-43 -25 -311 -117 -368 -125 -79 -12 -90 -26 -63 -78 22 -41 20 -154 -3 -188 -25 -39 -74 -73 -161 -114 -43 -20 -76 -27 -158 -31 l-103 -6 0 109 c0 121 11 156 72 238 51 68 100 96 170 96 32 0 75 -7 95 -15 46 -20 67 -5 35 25 -11 11 -26 20 -32 20 -6 0 -16 11 -22 25 -16 35 7 151 36 183 23 26 89 62 148 81 50 17 308 158 330 181 10 10 26 21 38 25 20 6 20 10 20 877 l0 871 25 33 c33 43 180 139 236 154 24 7 49 16 54 20 13 11 106 36 180 50 33 6 92 17 130 26 39 8 97 16 130 18 104 6 647 -5 720 -14z"/>
<path d="M1900 529 c-157 -23 -174 -41 -70 -71 57 -17 92 -19 280 -15 176 3 225 7 273 22 31 10 57 22 57 26 0 9 -70 26 -157 39 -83 12 -303 11 -383 -1z"/>
</g>


</svg>